<?xml version="1.0" encoding="utf-8"?>
<!-- Generator: Adobe Illustrator 22.1.0, SVG Export Plug-In . SVG Version: 6.00 Build 0)  -->
<svg version="1.1" id="Capa_1" xmlns="http://www.w3.org/2000/svg" xmlns:xlink="http://www.w3.org/1999/xlink" x="0px" y="0px"
	 viewBox="0 0 100 100" style="enable-background:new 0 0 100 100;" xml:space="preserve">
<style type="text/css">
	.st0{fill:#02182B;}
</style>
<g>
	<path class="st0" d="M37.6,73.1l-1.9-1.8l-1.9-1.8c-0.1-0.1-0.2-0.1-0.4-0.1s-0.2,0-0.4,0.1c-0.1,0.1-0.2,0.2-0.3,0.3
		c-0.1,0.1-0.1,0.2-0.1,0.3v1.1v1.1H32h-0.7c-0.9,0-1.7-0.4-2.3-0.9s-0.9-1.4-0.9-2.3v-5.5V34.9v-0.1v-0.1v-2.3v-2.3
		c0-0.9,0.4-1.7,1-2.3c0.6-0.6,1.4-1,2.3-1c0.4,0,27.1-0.1,27.4-0.4c0.3-0.3,0.4-0.6,0.4-1s-0.2-0.8-0.4-1c-0.3-0.3-27-0.5-27.4-0.5
		c-1.7,0-3.2,0.7-4.3,1.8c-1.1,1.1-1.8,2.7-1.8,4.3v2.3v2.3v0.1v0.1v28.6v5.5c0,1.7,0.7,3.2,1.8,4.3c1.1,1.1,2.6,1.8,4.3,1.8H32h0.7
		v1.1v1.1c0,0.1,0,0.2,0.1,0.3c0.1,0.1,0.1,0.2,0.3,0.3c0.1,0,0.1,0.1,0.2,0.1s0.1,0,0.2,0c0.1,0,0.1,0,0.2,0c0.1,0,0.1,0,0.2-0.1
		l1.9-1.8l1.9-1.8c0.1-0.1,0.2-0.2,0.3-0.3c0.1-0.1,0.1-0.2,0.1-0.3c0-0.1,0-0.2-0.1-0.3C37.8,73.3,37.7,73.2,37.6,73.1z"/>
	<path class="st0" d="M62.5,65.6h-2.7c-1.3,0-1.9-0.5-2.3-1.7l-2.2-6.2c-3.9,0.1-7.8,0.1-11.7,0l-2,5.9c-0.9,2.7-2.2,2.1-4.8,2.1
		c-0.9,0-1.9,0-1.9-1.2c0-0.4,0.2-1.1,0.4-1.5l10.2-28.6c1-2.7,2.3-2.2,5-2.2c1.7,0,2.3,0.6,2.9,2.2l10.8,29.1
		c0.1,0.3,0.2,0.5,0.2,0.7C64.3,65.2,63.5,65.6,62.5,65.6z M49.3,40.7l-4,11.8h8L49.3,40.7z"/>
	<path class="st0" d="M62.3,29l1.9,1.8l1.9,1.8c0.1,0.1,0.2,0.1,0.4,0.1c0.1,0,0.2,0,0.4-0.1c0.1-0.1,0.2-0.2,0.3-0.3
		c0.1-0.1,0.1-0.2,0.1-0.3v-1.1v-1.1h0.7h0.7c0.9,0,1.7,0.4,2.3,0.9c0.6,0.6,0.9,1.4,0.9,2.3v5.5v28.6v0.1v0.1v2.3V72
		c0,0.9-0.4,1.7-1,2.3c-0.6,0.6-1.4,1-2.3,1c-0.4,0-27.1,0.1-27.4,0.4c-0.3,0.3-0.4,0.6-0.4,1s0.2,0.8,0.4,1
		c0.3,0.3,27,0.5,27.4,0.5c1.7,0,3.2-0.7,4.3-1.8s1.8-2.7,1.8-4.3v-2.3v-2.3v-0.1v-0.1V38.5V33c0-1.7-0.7-3.2-1.8-4.3
		c-1.1-1.1-2.6-1.8-4.3-1.8h-0.7h-0.7v-1.1v-1.1c0-0.1,0-0.2-0.1-0.3s-0.1-0.2-0.3-0.3c-0.1,0-0.1-0.1-0.2-0.1c-0.1,0-0.1,0-0.2,0
		c-0.1,0-0.1,0-0.2,0c-0.1,0-0.1,0-0.2,0.1l-1.9,1.8l-1.9,1.8c-0.1,0.1-0.2,0.2-0.3,0.3s-0.1,0.2-0.1,0.3c0,0.1,0,0.2,0.1,0.3
		C62.1,28.8,62.2,28.8,62.3,29z"/>
</g>
</svg>
