<?xml version="1.0" encoding="utf-8"?>
<!-- Generator: Adobe Illustrator 22.1.0, SVG Export Plug-In . SVG Version: 6.00 Build 0)  -->
<svg version="1.1" id="Capa_1" xmlns="http://www.w3.org/2000/svg" xmlns:xlink="http://www.w3.org/1999/xlink" x="0px" y="0px"
	 viewBox="0 0 792 612" style="enable-background:new 0 0 792 612;" xml:space="preserve">
<style type="text/css">
	.st0{fill:#02182B;}
</style>
<g>
	<path class="st0" d="M208,372.6h-10.6c-5.2,0-7.3-2.1-9-6.7l-8.4-24c-15,0.4-29.9,0.4-44.9,0l-7.7,22.6c-3.5,10.4-8.6,8.1-18.6,8.1
		c-3.6,0-7.5-0.2-7.5-4.6c0-1.5,1-4.4,1.5-5.9l39.3-109.7c3.8-10.6,9-8.6,19.2-8.6c6.7,0,9,2.3,11.3,8.4L214.2,364
		c0.4,1,0.8,1.9,0.8,2.9C214.9,371.1,211.9,372.6,208,372.6z M157.4,276.9L142,322.1h30.7L157.4,276.9z"/>
	<path class="st0" d="M266.5,372.6h-33.4c-6.3,0-9.4-1.7-9.4-8.4V252.3c0-6.5,3.8-7.9,9.4-7.9h33.4c9.8,0,20.9,0.4,30.1,4
		c24,9.4,25.3,39.5,25.3,61.4C322,351.7,312.2,372.6,266.5,372.6z M283.6,269.4c-5.2-2.3-15-2.7-20.7-2.7c-4.6,0-9,0.2-13.4,0.6
		v82.5c4.4,0.4,8.8,0.6,13.4,0.6c4.6,0,9.2-0.2,13.8-1c12.9-2.3,16.7-9.8,18.2-22.1c0.8-5.6,0.8-11.3,0.8-17.1
		C295.7,298,297.2,275.3,283.6,269.4z"/>
	<path class="st0" d="M443.8,255l-39.3,109.4c-3.8,10.7-10.2,8.6-20.3,8.6c-6.7,0-9-2.5-11.3-8.6l-41.2-111.3
		c-0.4-1-0.8-1.9-0.8-2.9c0-4.2,3.1-5.8,6.9-5.8h11.7c5.2,0,7.5,1.9,9.2,6.7l30.3,87.3l29.5-86c1.9-5.6,3.6-8.1,10-8.1h9.4
		c3.8,0,7.3,0,7.3,4.6C445.2,250.8,444.4,253.3,443.8,255z"/>
	<path class="st0" d="M475.7,372.6h-8.3c-6.3,0-9.2-1.7-9.2-8.4V252.3c0-6.5,3.5-7.9,9.2-7.9h8.3c5.4,0,8.3,2.3,8.3,7.9v111.9
		C483.9,369.7,481.4,372.6,475.7,372.6z"/>
	<path class="st0" d="M579.3,374.1c-7.3,0.8-14.6,1-21.9,1c-46.2,0-55.3-22.6-55.3-65c0-21.9,1.5-52.6,25.1-62.5
		c9.2-3.8,20.3-4.4,30.1-4.4c7.3,0,14.6,0.2,21.9,1c4.8,0.4,10,0.8,10,6.7v6.3c0,5.9-0.6,9.2-7.3,9.2c-6.9,0-13.8-1-20.7-1
		c-5.8,0-15.7,0.4-20.9,2.7c-13.4,5.8-11.7,30.3-11.7,42.2c0,15-1.2,38,17.8,41.6c4.8,1,10,1,14.8,1c6.9,0,13.8-1,20.7-1
		c9.4,0,7.3,8.3,7.3,15.5C589.2,373.4,584.1,373.8,579.3,374.1z"/>
	<path class="st0" d="M672.5,372.6h-59.3c-6.3,0-9.4-1.7-9.4-8.4V252.3c0-6.5,3.6-7.9,9.4-7.9h59.3c9.2,0,8.3,5.8,8.3,13
		c0,5.9-1.7,9-8.3,9c-14.4,0-28.6-0.2-43-0.6v29.9c12.9-0.2,25.9-0.6,38.8-0.6c8.4,0,8.3,5.2,8.3,11.7c0,5.9-1.7,9-8.3,9
		c-12.9,0-25.9-0.4-38.8-0.6v35.7c14.4-0.4,28.6-0.6,43-0.6c9.6,0,8.3,7.3,8.3,14.2C680.7,370.5,677.9,372.6,672.5,372.6z"/>
	<path class="st0" d="M160.8,410l-15.4-14.9L130,380.2c-0.9-0.5-1.9-0.7-2.9-0.6c-1,0-2,0.3-2.9,0.9c-0.9,0.5-1.6,1.2-2.1,2.1
		s-0.8,1.8-0.8,2.8v9v9h-5.9h-5.9c-7.3,0-13.8-2.9-18.5-7.6c-4.7-4.7-7.6-11.2-7.6-18.5v-45v-45v-1.2v-1.2v-18.5v-18.5
		c0-7.3,3-13.9,7.7-18.7c4.8-4.8,11.4-7.7,18.7-7.7c3.3,0,347.8-1.1,349.9-3.3s3.5-5.1,3.5-8.4s-1.3-6.2-3.5-8.4
		s-346.6-3.7-349.9-3.7c-13.8,0-26.3,5.6-35.4,14.7c-9.1,9.1-14.7,21.6-14.7,35.4v18.5v18.5v1.2v1.2v45v45
		c0,13.7,5.6,26.2,14.6,35.2S95.8,427,109.5,427h5.9h5.9v9v9c0,1,0.3,2,0.8,2.8c0.5,0.8,1.2,1.6,2.1,2.1c0.5,0.3,1,0.5,1.5,0.6
		c0.5,0.1,1.1,0.2,1.6,0.2c0.5,0,0.9-0.1,1.4-0.2s0.9-0.3,1.3-0.5l15.4-14.9l15.4-14.9c0.9-0.9,1.7-1.6,2.3-2.4
		c0.6-0.8,0.9-1.7,0.9-2.8c0-1.1-0.3-1.9-0.9-2.7C162.6,411.6,161.8,410.9,160.8,410z"/>
	<path class="st0" d="M633.2,204.1l15.4,14.9l15.4,14.9c0.9,0.5,1.9,0.7,2.9,0.6c1,0,2-0.3,2.9-0.9c0.9-0.5,1.6-1.2,2.1-2.1
		c0.5-0.8,0.8-1.8,0.8-2.8v-9v-9h5.9h5.9c7.3,0,13.8,2.9,18.5,7.6c4.7,4.7,7.6,11.2,7.6,18.5v45v45v1.2v1.2v18.5v18.5
		c0,7.3-3,13.9-7.7,18.7c-4.8,4.8-11.4,7.7-18.7,7.7c-3.3,0-347.8,1.1-349.9,3.3s-3.5,5.1-3.5,8.4c0,3.3,1.3,6.2,3.5,8.4
		s346.6,3.7,349.9,3.7c13.8,0,26.3-5.6,35.4-14.7c9.1-9.1,14.7-21.6,14.7-35.4v-18.5v-18.5v-1.2v-1.2v-45v-45
		c0-13.7-5.6-26.2-14.6-35.2c-9-9-21.5-14.6-35.2-14.6h-5.9h-5.9v-9v-9c0-1-0.3-2-0.8-2.8c-0.5-0.8-1.2-1.6-2.1-2.1
		c-0.5-0.3-1-0.5-1.5-0.6c-0.5-0.1-1.1-0.2-1.6-0.2c-0.5,0-0.9,0.1-1.4,0.2c-0.4,0.1-0.9,0.3-1.3,0.5l-15.4,14.9l-15.4,14.9
		c-0.9,0.9-1.7,1.6-2.3,2.4c-0.6,0.8-0.9,1.7-0.9,2.8c0,1.1,0.3,1.9,0.9,2.7S632.2,203.2,633.2,204.1z"/>
</g>
<g>
	<path class="st0" d="M416.5,439.6c-0.6,0.9-1.3,1.7-2.1,2.3c-0.8,0.6-1.7,1.1-2.8,1.4c-1,0.3-2.1,0.5-3.3,0.5
		c-1.6,0-2.9-0.3-4.2-0.8c-1.2-0.6-2.2-1.3-3.1-2.3c-0.8-1-1.5-2.2-1.9-3.6s-0.7-2.9-0.7-4.5c0-1.7,0.2-3.2,0.7-4.6s1.2-2.6,2-3.5
		s1.9-1.7,3.2-2.3s2.6-0.8,4.2-0.8c1.1,0,2.2,0.2,3.2,0.5c1,0.3,1.9,0.8,2.7,1.4c0.8,0.6,1.5,1.4,2,2.3c0.5,0.9,0.9,1.9,1.2,3.1h-3
		c-0.2-0.7-0.4-1.3-0.8-1.9c-0.3-0.6-0.8-1.1-1.3-1.5c-0.5-0.4-1.1-0.7-1.8-1s-1.5-0.4-2.3-0.4c-1,0-1.8,0.2-2.7,0.6
		s-1.5,0.9-2.2,1.6c-0.6,0.7-1.1,1.6-1.5,2.7s-0.5,2.3-0.5,3.7c0,1.4,0.2,2.6,0.5,3.7s0.8,2,1.4,2.7s1.3,1.3,2.2,1.7
		c0.8,0.4,1.8,0.6,2.8,0.6c1.7,0,3.1-0.4,4.2-1.3c1-0.9,1.7-2,2.1-3.4h3C417.5,437.6,417.1,438.7,416.5,439.6z"/>
	<path class="st0" d="M429.1,427.5c0.9,0.3,1.7,0.8,2.5,1.5c0.7,0.7,1.3,1.5,1.8,2.6c0.4,1.1,0.7,2.3,0.7,3.8c0,1.5-0.2,2.7-0.7,3.8
		c-0.4,1.1-1,1.9-1.8,2.6s-1.6,1.2-2.5,1.5c-0.9,0.3-1.8,0.5-2.8,0.5s-1.9-0.2-2.8-0.5s-1.7-0.8-2.5-1.5c-0.7-0.7-1.3-1.5-1.8-2.6
		c-0.4-1.1-0.7-2.3-0.7-3.8c0-1.5,0.2-2.7,0.7-3.8c0.4-1.1,1-1.9,1.8-2.6c0.7-0.7,1.6-1.2,2.5-1.5c0.9-0.3,1.8-0.5,2.8-0.5
		S428.2,427.2,429.1,427.5z M421.9,438.1c0.3,0.8,0.6,1.4,1.1,1.9s1,0.8,1.5,1c0.6,0.2,1.2,0.3,1.8,0.3c0.6,0,1.2-0.1,1.8-0.4
		c0.6-0.2,1.1-0.6,1.5-1.1s0.8-1.1,1.1-1.9c0.3-0.7,0.4-1.6,0.4-2.7c0-1.1-0.1-2-0.4-2.8c-0.3-0.8-0.6-1.4-1.1-1.9
		c-0.4-0.5-1-0.8-1.5-1c-0.6-0.2-1.2-0.3-1.8-0.3c-0.6,0-1.2,0.1-1.8,0.3s-1.1,0.6-1.5,1s-0.8,1.1-1.1,1.9c-0.3,0.8-0.4,1.7-0.4,2.8
		C421.5,436.4,421.6,437.4,421.9,438.1z"/>
	<path class="st0" d="M435.8,443.3v-16.1h2.7v2.4c0.5-0.8,1.1-1.4,1.9-1.9c0.8-0.5,1.8-0.8,3-0.8c1.2,0,2.2,0.2,3,0.7
		c0.7,0.5,1.3,1.2,1.7,2.1c0.6-1,1.4-1.7,2.3-2.2c0.9-0.4,1.9-0.7,3.1-0.7c0.9,0,1.7,0.1,2.4,0.4c0.7,0.3,1.2,0.7,1.6,1.3
		c0.4,0.5,0.7,1.2,0.9,2c0.2,0.8,0.3,1.6,0.3,2.5v10.2h-2.7V434c0-0.6,0-1.2-0.1-1.8c-0.1-0.6-0.2-1.1-0.5-1.5s-0.6-0.8-1-1
		c-0.4-0.2-1-0.4-1.8-0.4c-1.2,0-2.1,0.4-2.8,1.3c-0.7,0.9-1.1,2.2-1.1,3.9v8.7h-2.7V434c0-0.6,0-1.2-0.1-1.8
		c-0.1-0.6-0.2-1.1-0.5-1.5s-0.6-0.8-1-1c-0.4-0.2-1-0.4-1.8-0.4c-1.2,0-2.1,0.4-2.8,1.3s-1.1,2.2-1.1,3.9v8.7H435.8z"/>
	<path class="st0" d="M469.3,443c-0.8,0.5-1.8,0.8-3.2,0.8c-0.9,0-1.7-0.1-2.4-0.4c-0.6-0.3-1.2-0.7-1.6-1.3s-0.7-1.2-0.9-2
		s-0.3-1.6-0.3-2.5v-10.3h2.7v9.5c0,0.6,0,1.2,0.1,1.8c0.1,0.6,0.2,1.1,0.5,1.5c0.2,0.4,0.6,0.8,1,1s1,0.4,1.8,0.4
		c1.3,0,2.3-0.4,3-1.3c0.7-0.9,1.1-2.2,1.1-3.9v-8.8h2.7v16.1h-2.7V441C470.7,441.8,470.1,442.4,469.3,443z"/>
	<path class="st0" d="M481.3,427.8c0.8-0.5,1.9-0.8,3.3-0.8c1,0,1.8,0.1,2.5,0.4c0.7,0.3,1.2,0.7,1.6,1.3c0.4,0.5,0.7,1.2,0.9,2
		c0.2,0.8,0.3,1.6,0.3,2.5v10.2h-2.7V434c0-0.6,0-1.2-0.1-1.8c-0.1-0.6-0.2-1.1-0.5-1.5c-0.2-0.4-0.6-0.8-1.1-1
		c-0.5-0.2-1.1-0.4-1.9-0.4c-1.3,0-2.4,0.4-3.1,1.3c-0.8,0.9-1.1,2.2-1.1,3.9v8.7h-2.7v-16.1h2.7v2.4
		C479.9,428.9,480.5,428.3,481.3,427.8z"/>
	<path class="st0" d="M495.2,425h-2.7v-3.3h2.7V425z M495.2,443.3h-2.7v-16.1h2.7V443.3z"/>
	<path class="st0" d="M507.3,427.5c0.8,0.3,1.5,0.8,2,1.3c0.6,0.5,1,1.1,1.4,1.8c0.3,0.7,0.6,1.4,0.7,2h-2.8c-0.2-1-0.7-1.7-1.4-2.3
		c-0.8-0.6-1.7-0.9-2.7-0.9c-0.6,0-1.2,0.1-1.7,0.4c-0.6,0.2-1.1,0.6-1.5,1.1c-0.4,0.5-0.8,1.1-1,1.8c-0.3,0.7-0.4,1.6-0.4,2.6
		s0.1,1.9,0.4,2.7c0.3,0.8,0.6,1.4,1,1.9c0.4,0.5,0.9,0.9,1.5,1.1c0.6,0.2,1.1,0.4,1.7,0.4c0.6,0,1.1-0.1,1.6-0.3
		c0.5-0.2,0.9-0.4,1.3-0.7c0.4-0.3,0.7-0.6,0.9-1s0.4-0.8,0.5-1.2h2.8c-0.1,0.8-0.4,1.5-0.8,2.2c-0.4,0.7-0.9,1.3-1.6,1.8
		c-0.6,0.5-1.3,0.9-2.2,1.2s-1.7,0.4-2.6,0.4c-1.2,0-2.2-0.2-3.1-0.6c-0.9-0.4-1.7-1-2.4-1.7c-0.6-0.7-1.1-1.6-1.5-2.6
		s-0.5-2.2-0.5-3.4c0-1.2,0.2-2.3,0.6-3.3c0.4-1,0.9-1.9,1.6-2.6c0.7-0.7,1.5-1.3,2.4-1.7c1-0.4,2-0.6,3.2-0.6
		C505.6,427,506.5,427.2,507.3,427.5z"/>
	<path class="st0" d="M515.6,443.4c-0.7-0.2-1.3-0.5-1.8-0.9c-0.5-0.4-0.9-0.9-1.2-1.4c-0.3-0.6-0.4-1.2-0.4-2c0-1,0.3-1.8,0.8-2.4
		c0.5-0.6,1.3-1.2,2.2-1.6c0.9-0.4,2.1-0.8,3.4-1c1.3-0.3,2.8-0.5,4.5-0.7v-0.4c0-0.7-0.1-1.4-0.3-1.9c-0.2-0.5-0.4-0.9-0.8-1.2
		c-0.3-0.3-0.7-0.5-1.2-0.7c-0.4-0.1-0.9-0.2-1.4-0.2c-1.1,0-2,0.3-2.6,0.9c-0.6,0.6-1,1.3-1,2.3h-2.8c0.1-0.9,0.3-1.6,0.7-2.3
		s0.9-1.2,1.5-1.7c0.6-0.5,1.3-0.8,2-1c0.7-0.2,1.5-0.4,2.3-0.4c2.2,0,3.9,0.5,4.9,1.6s1.5,2.8,1.5,5l0,3.7c0,1.4,0,2.5,0.1,3.5
		c0.1,1,0.2,1.8,0.3,2.6h-2.8c0-0.3-0.1-0.6-0.1-1s-0.1-0.8-0.1-1.2c-0.5,0.8-1.2,1.5-2,1.9c-0.9,0.4-2,0.7-3.5,0.7
		C517,443.7,516.2,443.6,515.6,443.4z M519.9,436c-1,0.2-1.8,0.4-2.5,0.6c-0.7,0.3-1.2,0.6-1.6,1c-0.4,0.4-0.6,0.8-0.6,1.4
		c0,0.8,0.3,1.4,0.8,1.8c0.5,0.5,1.3,0.7,2.3,0.7c0.6,0,1.3-0.1,1.9-0.2s1.1-0.4,1.6-0.8c0.5-0.4,0.8-0.9,1.1-1.5
		c0.3-0.6,0.4-1.4,0.4-2.4v-1C522,435.7,520.9,435.9,519.9,436z"/>
	<path class="st0" d="M537.7,427.5c0.8,0.3,1.5,0.8,2,1.3c0.6,0.5,1,1.1,1.4,1.8c0.3,0.7,0.6,1.4,0.7,2H539c-0.2-1-0.7-1.7-1.4-2.3
		c-0.8-0.6-1.7-0.9-2.7-0.9c-0.6,0-1.2,0.1-1.7,0.4c-0.6,0.2-1.1,0.6-1.5,1.1c-0.4,0.5-0.8,1.1-1,1.8c-0.3,0.7-0.4,1.6-0.4,2.6
		s0.1,1.9,0.4,2.7c0.3,0.8,0.6,1.4,1,1.9c0.4,0.5,0.9,0.9,1.5,1.1c0.6,0.2,1.1,0.4,1.7,0.4c0.6,0,1.1-0.1,1.6-0.3
		c0.5-0.2,0.9-0.4,1.3-0.7c0.4-0.3,0.7-0.6,0.9-1s0.4-0.8,0.5-1.2h2.8c-0.1,0.8-0.4,1.5-0.8,2.2c-0.4,0.7-0.9,1.3-1.6,1.8
		c-0.6,0.5-1.3,0.9-2.2,1.2s-1.7,0.4-2.6,0.4c-1.2,0-2.2-0.2-3.1-0.6c-0.9-0.4-1.7-1-2.4-1.7c-0.6-0.7-1.1-1.6-1.5-2.6
		s-0.5-2.2-0.5-3.4c0-1.2,0.2-2.3,0.6-3.3c0.4-1,0.9-1.9,1.6-2.6c0.7-0.7,1.5-1.3,2.4-1.7c1-0.4,2-0.6,3.2-0.6
		C536,427,536.9,427.2,537.7,427.5z"/>
	<path class="st0" d="M546.2,425h-2.7v-3.3h2.7V425z M546.2,443.3h-2.7v-16.1h2.7V443.3z"/>
	<path class="st0" d="M558.5,427.5c0.9,0.3,1.7,0.8,2.5,1.5c0.7,0.7,1.3,1.5,1.8,2.6c0.4,1.1,0.7,2.3,0.7,3.8c0,1.5-0.2,2.7-0.7,3.8
		c-0.4,1.1-1,1.9-1.8,2.6s-1.6,1.2-2.5,1.5c-0.9,0.3-1.8,0.5-2.8,0.5s-1.9-0.2-2.8-0.5s-1.7-0.8-2.5-1.5c-0.7-0.7-1.3-1.5-1.8-2.6
		c-0.4-1.1-0.7-2.3-0.7-3.8c0-1.5,0.2-2.7,0.7-3.8c0.4-1.1,1-1.9,1.8-2.6c0.7-0.7,1.6-1.2,2.5-1.5c0.9-0.3,1.8-0.5,2.8-0.5
		S557.6,427.2,558.5,427.5z M551.3,438.1c0.3,0.8,0.6,1.4,1.1,1.9s1,0.8,1.5,1c0.6,0.2,1.2,0.3,1.8,0.3c0.6,0,1.2-0.1,1.8-0.4
		c0.6-0.2,1.1-0.6,1.5-1.1s0.8-1.1,1.1-1.9c0.3-0.7,0.4-1.6,0.4-2.7c0-1.1-0.1-2-0.4-2.8c-0.3-0.8-0.6-1.4-1.1-1.9
		c-0.4-0.5-1-0.8-1.5-1c-0.6-0.2-1.2-0.3-1.8-0.3c-0.6,0-1.2,0.1-1.8,0.3s-1.1,0.6-1.5,1s-0.8,1.1-1.1,1.9c-0.3,0.8-0.4,1.7-0.4,2.8
		C550.9,436.4,551,437.4,551.3,438.1z M554.5,425.1l2.7-3.5h3.5l-3.9,3.5H554.5z"/>
	<path class="st0" d="M569.8,427.8c0.8-0.5,1.9-0.8,3.3-0.8c1,0,1.8,0.1,2.5,0.4c0.7,0.3,1.2,0.7,1.6,1.3c0.4,0.5,0.7,1.2,0.9,2
		c0.2,0.8,0.3,1.6,0.3,2.5v10.2h-2.7V434c0-0.6,0-1.2-0.1-1.8c-0.1-0.6-0.2-1.1-0.5-1.5c-0.2-0.4-0.6-0.8-1.1-1
		c-0.5-0.2-1.1-0.4-1.9-0.4c-1.3,0-2.4,0.4-3.1,1.3c-0.8,0.9-1.1,2.2-1.1,3.9v8.7h-2.7v-16.1h2.7v2.4
		C568.4,428.9,569,428.3,569.8,427.8z"/>
	<path class="st0" d="M589,443.4c-0.7-0.2-1.3-0.5-1.8-0.9c-0.5-0.4-0.9-0.9-1.2-1.4c-0.3-0.6-0.4-1.2-0.4-2c0-1,0.3-1.8,0.8-2.4
		c0.5-0.6,1.3-1.2,2.2-1.6c0.9-0.4,2.1-0.8,3.4-1c1.3-0.3,2.8-0.5,4.5-0.7v-0.4c0-0.7-0.1-1.4-0.3-1.9c-0.2-0.5-0.4-0.9-0.8-1.2
		c-0.3-0.3-0.7-0.5-1.2-0.7c-0.4-0.1-0.9-0.2-1.4-0.2c-1.1,0-2,0.3-2.6,0.9c-0.6,0.6-1,1.3-1,2.3h-2.8c0.1-0.9,0.3-1.6,0.7-2.3
		s0.9-1.2,1.5-1.7c0.6-0.5,1.3-0.8,2-1c0.7-0.2,1.5-0.4,2.3-0.4c2.2,0,3.9,0.5,4.9,1.6s1.5,2.8,1.5,5l0,3.7c0,1.4,0,2.5,0.1,3.5
		c0.1,1,0.2,1.8,0.3,2.6h-2.8c0-0.3-0.1-0.6-0.1-1s-0.1-0.8-0.1-1.2c-0.5,0.8-1.2,1.5-2,1.9c-0.9,0.4-2,0.7-3.5,0.7
		C590.4,443.7,589.7,443.6,589,443.4z M593.4,436c-1,0.2-1.8,0.4-2.5,0.6c-0.7,0.3-1.2,0.6-1.6,1c-0.4,0.4-0.6,0.8-0.6,1.4
		c0,0.8,0.3,1.4,0.8,1.8c0.5,0.5,1.3,0.7,2.3,0.7c0.6,0,1.3-0.1,1.9-0.2s1.1-0.4,1.6-0.8c0.5-0.4,0.8-0.9,1.1-1.5
		c0.3-0.6,0.4-1.4,0.4-2.4v-1C595.5,435.7,594.3,435.9,593.4,436z"/>
	<path class="st0" d="M609.6,429.9c-0.7-0.4-1.5-0.6-2.5-0.6c-0.4,0-0.8,0-1.2,0.1c-0.4,0.1-0.8,0.2-1.1,0.4
		c-0.3,0.2-0.6,0.4-0.8,0.6c-0.2,0.3-0.3,0.6-0.3,0.9c0,0.6,0.2,1.1,0.6,1.5c0.4,0.3,1,0.6,1.8,0.7l2.3,0.4c0.7,0.1,1.4,0.3,2.1,0.6
		c0.7,0.2,1.2,0.5,1.7,0.9c0.5,0.4,0.9,0.8,1.2,1.4s0.4,1.2,0.4,2c0,0.8-0.2,1.5-0.5,2.1c-0.3,0.6-0.8,1.1-1.4,1.6
		c-0.6,0.4-1.3,0.8-2.1,1c-0.8,0.2-1.7,0.3-2.6,0.3c-1.1,0-2-0.2-2.8-0.5c-0.8-0.3-1.5-0.7-2.1-1.3c-0.6-0.5-1-1.1-1.4-1.8
		s-0.5-1.4-0.6-2.1h2.9c0.2,1,0.7,1.8,1.3,2.4c0.7,0.6,1.6,0.9,2.8,0.9c1,0,1.9-0.2,2.6-0.6c0.7-0.4,1.1-1,1.1-1.8
		c0-0.4-0.1-0.7-0.3-1c-0.2-0.3-0.4-0.6-0.7-0.8c-0.3-0.2-0.6-0.4-1-0.5c-0.4-0.1-0.8-0.2-1.2-0.3l-2.4-0.5
		c-0.5-0.1-1.1-0.3-1.6-0.5s-1-0.5-1.5-0.8s-0.8-0.8-1.1-1.3c-0.3-0.5-0.4-1.1-0.4-1.9c0-0.7,0.2-1.3,0.5-1.9s0.8-1,1.4-1.4
		c0.6-0.4,1.3-0.7,2-0.9s1.6-0.3,2.5-0.3c1.8,0,3.2,0.4,4.3,1.3c1.1,0.9,1.8,2.1,2,3.6H611C610.8,431,610.3,430.3,609.6,429.9z"/>
	<path class="st0" d="M618.3,438.5c0.3,0.6,0.7,1.2,1.2,1.6c0.5,0.4,1,0.7,1.6,1c0.6,0.2,1.2,0.3,1.8,0.3c1.2,0,2.1-0.2,2.8-0.7
		s1.2-1.1,1.6-1.9h2.8c-0.2,0.7-0.5,1.3-0.9,2c-0.4,0.6-0.9,1.1-1.5,1.6c-0.6,0.5-1.3,0.8-2.1,1.1c-0.8,0.3-1.7,0.4-2.7,0.4
		c-1.3,0-2.4-0.2-3.4-0.6c-1-0.4-1.8-1-2.5-1.8c-0.7-0.8-1.2-1.6-1.5-2.7c-0.3-1-0.5-2.1-0.5-3.3c0-1.3,0.2-2.4,0.6-3.5
		c0.4-1,1-1.9,1.7-2.6c0.7-0.7,1.5-1.3,2.5-1.7c0.9-0.4,2-0.6,3.1-0.6c1.2,0,2.3,0.2,3.3,0.7c1,0.5,1.8,1.1,2.4,2
		c0.6,0.8,1.1,1.8,1.4,2.9c0.3,1.1,0.4,2.3,0.3,3.6h-12.4C617.8,437.1,618,437.8,618.3,438.5z M620.9,429.6
		c-0.6,0.2-1.1,0.4-1.5,0.8c-0.4,0.4-0.8,0.8-1.1,1.4s-0.5,1.3-0.5,2.1h9.5c0-0.6-0.1-1.1-0.3-1.7s-0.5-1-0.9-1.5s-0.9-0.8-1.4-1
		c-0.6-0.3-1.2-0.4-1.9-0.4C622.1,429.3,621.5,429.4,620.9,429.6z"/>
	<path class="st0" d="M639.1,430c-0.3,0-0.5,0-0.7,0c-1.3,0-2.2,0.4-2.8,1.1c-0.6,0.8-0.9,2-0.9,3.8v8.4h-2.7v-16.1h2.7v2.8
		c0.4-0.9,1-1.6,1.8-2.1s1.7-0.8,2.8-0.8h0.4c0.1,0,0.3,0,0.4,0v2.9C639.6,430.1,639.3,430,639.1,430z"/>
	<path class="st0" d="M644.5,423.2v4h3v2.2h-3v9.5c0,0.4,0,0.8,0,1c0,0.3,0.1,0.5,0.2,0.6c0.1,0.2,0.3,0.3,0.5,0.3
		c0.2,0.1,0.5,0.1,0.9,0.1h1.4v2.3h-2c-0.8,0-1.4-0.1-1.9-0.2c-0.5-0.1-0.9-0.3-1.2-0.6c-0.3-0.3-0.5-0.7-0.6-1.2
		c-0.1-0.5-0.2-1.2-0.2-2v-9.9h-2.5v-2.2h2.5v-4H644.5z"/>
	<path class="st0" d="M652.2,425h-2.7v-3.3h2.7V425z M652.2,443.3h-2.7v-16.1h2.7V443.3z"/>
	<path class="st0" d="M664.6,427.3h2.8l-6.1,16.1h-2.4l-6.1-16.1h3l4.4,12.3L664.6,427.3z"/>
	<path class="st0" d="M669.9,443.4c-0.7-0.2-1.3-0.5-1.8-0.9c-0.5-0.4-0.9-0.9-1.2-1.4c-0.3-0.6-0.4-1.2-0.4-2c0-1,0.3-1.8,0.8-2.4
		c0.5-0.6,1.3-1.2,2.2-1.6c0.9-0.4,2.1-0.8,3.4-1c1.3-0.3,2.8-0.5,4.5-0.7v-0.4c0-0.7-0.1-1.4-0.3-1.9c-0.2-0.5-0.4-0.9-0.8-1.2
		c-0.3-0.3-0.7-0.5-1.2-0.7c-0.4-0.1-0.9-0.2-1.4-0.2c-1.1,0-2,0.3-2.6,0.9c-0.6,0.6-1,1.3-1,2.3h-2.8c0.1-0.9,0.3-1.6,0.7-2.3
		s0.9-1.2,1.5-1.7c0.6-0.5,1.3-0.8,2-1c0.7-0.2,1.5-0.4,2.3-0.4c2.2,0,3.9,0.5,4.9,1.6s1.5,2.8,1.5,5l0,3.7c0,1.4,0,2.5,0.1,3.5
		c0.1,1,0.2,1.8,0.3,2.6h-2.8c0-0.3-0.1-0.6-0.1-1s-0.1-0.8-0.1-1.2c-0.5,0.8-1.2,1.5-2,1.9c-0.9,0.4-2,0.7-3.5,0.7
		C671.3,443.7,670.6,443.6,669.9,443.4z M674.3,436c-1,0.2-1.8,0.4-2.5,0.6c-0.7,0.3-1.2,0.6-1.6,1c-0.4,0.4-0.6,0.8-0.6,1.4
		c0,0.8,0.3,1.4,0.8,1.8c0.5,0.5,1.3,0.7,2.3,0.7c0.6,0,1.3-0.1,1.9-0.2s1.1-0.4,1.6-0.8c0.5-0.4,0.8-0.9,1.1-1.5
		c0.3-0.6,0.4-1.4,0.4-2.4v-1C676.4,435.7,675.3,435.9,674.3,436z"/>
</g>
</svg>
